<svg xmlns="http://www.w3.org/2000/svg" shape-rendering="geometricPrecision" text-rendering="geometricPrecision" image-rendering="optimizeQuality" fill-rule="evenodd" clip-rule="evenodd" viewBox="0 0 512 302.712"><path fill-rule="nonzero" d="M151.355 0h209.29c41.618 0 79.454 17.041 106.876 44.465C494.965 71.908 512 109.759 512 151.355c0 41.583-17.05 79.425-44.491 106.866-27.437 27.439-65.281 44.491-106.864 44.491h-209.29c-41.595 0-79.446-17.035-106.889-44.478C17.041 230.81 0 192.976 0 151.357c0-41.633 17.025-79.476 44.453-106.904C71.882 17.024 109.724 0 151.355 0zm73.304 101.221v100.27h-38.287l-29.17-57.882v57.882h-30.688v-100.27h38.285l29.171 57.884v-57.884h30.689zm58.035 0l-22.355 100.27H238.13l22.356-100.27h22.208zm67.746 100.27l-4.556-19.141h-29.266l-4.71 19.141H277.77l32.514-100.27h42.539l32.665 100.27H350.44zm-28.506-41.172h18.783l-9.315-34.792-9.468 34.792zm38.711-143.666h-209.29c-37.035 0-70.712 15.158-95.128 39.573-24.416 24.416-39.573 58.094-39.573 95.129 0 37.024 15.17 70.69 39.585 95.105 24.433 24.433 58.117 39.599 95.116 39.599h209.29c36.986 0 70.662-15.181 95.09-39.611 24.431-24.43 39.611-58.106 39.611-95.091 0-37.001-15.165-70.685-39.598-95.118-24.414-24.416-58.081-39.586-95.103-39.586z"/></svg>