<?xml version="1.0" encoding="UTF-8"?>
<svg version="1.1" xmlns="http://www.w3.org/2000/svg" width="1080" height="1080">
<path d="M0 0 C1.23999252 0.00031723 1.23999252 0.00031723 2.5050354 0.00064087 C29.97349197 0.07035357 56.11481551 5.44888216 81.6875 15.375 C82.33219238 15.62443359 82.97688477 15.87386719 83.64111328 16.13085938 C103.40945416 23.93190893 120.96931291 35.38760834 137.6875 48.375 C138.6878125 49.1278125 139.688125 49.880625 140.71875 50.65625 C141.3684375 51.2234375 142.018125 51.790625 142.6875 52.375 C142.6875 53.035 142.6875 53.695 142.6875 54.375 C143.25952148 54.6225 143.83154297 54.87 144.42089844 55.125 C147.04623698 56.57283858 148.83007315 58.25856202 150.953125 60.375 C151.76136719 61.18066406 152.56960938 61.98632812 153.40234375 62.81640625 C154.65724609 64.08291016 154.65724609 64.08291016 155.9375 65.375 C156.75863281 66.18839844 157.57976562 67.00179687 158.42578125 67.83984375 C166.16104155 75.59962152 172.94014577 83.96331939 179.125 93 C179.81867676 94.01296143 179.81867676 94.01296143 180.52636719 95.04638672 C184.98023017 101.65075939 188.94190171 108.48349077 192.68945312 115.50927734 C193.60439686 117.21964916 194.54323487 118.91718306 195.484375 120.61328125 C205.03372647 138.55116853 211.10443686 158.42682978 214.6875 178.375 C214.96460815 179.78628174 214.96460815 179.78628174 215.24731445 181.22607422 C217.16065142 192.31169868 217.02462001 203.44044471 217.00317383 214.65917969 C217.00001938 218.10383953 217.0235222 221.54763356 217.04882812 224.9921875 C217.08605525 237.77892689 216.38474016 249.86880454 213.6875 262.375 C213.47375732 263.40995605 213.26001465 264.44491211 213.03979492 265.51123047 C204.16580957 306.11784405 183.3621006 340.99742189 155.03759766 370.94580078 C153.89664429 372.15360205 152.76555034 373.37070563 151.63671875 374.58984375 C139.43688637 387.36440057 123.86516072 397.55296028 108.6875 406.375 C108.0270166 406.76059082 107.3665332 407.14618164 106.68603516 407.54345703 C86.17375417 419.34432604 63.9177986 427.06949204 40.6875 431.375 C39.80441162 431.54609787 38.92132324 431.71719574 38.01147461 431.89347839 C30.67153052 433.23363011 23.60448853 433.68206125 16.15234375 433.67578125 C14.99360245 433.68006638 13.83486115 433.6843515 12.64100647 433.68876648 C10.20314177 433.69447245 7.76526005 433.69503784 5.32739258 433.69067383 C1.65871023 433.6875289 -2.00915217 433.71096983 -5.67773438 433.73632812 C-19.19119052 433.77298483 -32.06743447 433.10904607 -45.3125 430.375 C-46.27003174 430.18156006 -47.22756348 429.98812012 -48.21411133 429.78881836 C-50.39287375 429.31180058 -52.5369763 428.77769697 -54.6875 428.1875 C-55.45384766 427.9802832 -56.22019531 427.77306641 -57.00976562 427.55957031 C-90.76674241 418.06456917 -121.28524224 400.93922734 -146.69921875 376.8125 C-148.57859981 375.05953471 -150.44830492 373.41829665 -152.43359375 371.796875 C-154.77530567 369.82691382 -156.72742319 367.95321306 -158.6875 365.625 C-160.46361594 363.5315823 -162.23392659 361.45868665 -164.11328125 359.45703125 C-189.2334233 332.56859763 -203.85534033 297.69031832 -212.3125 262.375 C-212.53679687 261.45847656 -212.76109375 260.54195312 -212.9921875 259.59765625 C-213.52573684 257.19668421 -213.93822116 254.80599559 -214.3125 252.375 C-214.49683594 251.27542969 -214.68117188 250.17585937 -214.87109375 249.04296875 C-218.25530523 226.22970615 -218.14122316 200.92160393 -213.3125 178.375 C-213.05509033 177.0751416 -213.05509033 177.0751416 -212.79248047 175.74902344 C-207.32397821 148.15727747 -197.00857177 121.82189634 -181.3125 98.375 C-180.89000977 97.73876709 -180.46751953 97.10253418 -180.03222656 96.44702148 C-161.83914893 69.46689107 -138.05739053 47.2351081 -110.3125 30.375 C-109.27738281 29.72273438 -108.24226563 29.07046875 -107.17578125 28.3984375 C-84.84453418 14.87577643 -58.99502331 6.52436778 -33.3125 2.375 C-32.22235596 2.19694824 -31.13221191 2.01889648 -30.0090332 1.83544922 C-19.97576167 0.33818565 -10.12960458 -0.02408625 0 0 Z M-124.3125 77.375 C-125.04210937 77.98085938 -125.77171875 78.58671875 -126.5234375 79.2109375 C-131.20725402 83.17692773 -135.66396335 87.4152705 -139.3125 92.375 C-139.3125 93.035 -139.3125 93.695 -139.3125 94.375 C-139.9725 94.375 -140.6325 94.375 -141.3125 94.375 C-142.69271643 95.77150474 -142.69271643 95.77150474 -144.0703125 97.63671875 C-144.60954346 98.33684082 -145.14877441 99.03696289 -145.7043457 99.75830078 C-146.27628662 100.51868652 -146.84822754 101.27907227 -147.4375 102.0625 C-148.02426514 102.83835449 -148.61103027 103.61420898 -149.21557617 104.41357422 C-154.02176242 110.8434452 -158.34382163 117.38944621 -162.3125 124.375 C-162.96605469 125.49648438 -163.61960937 126.61796875 -164.29296875 127.7734375 C-172.45962128 142.14951096 -178.63443185 158.26703188 -182.3125 174.375 C-182.49296875 175.14924316 -182.6734375 175.92348633 -182.859375 176.72119141 C-193.32518467 223.41956345 -184.62790766 274.68704569 -159.57080078 315.390625 C-153.00525539 325.74467098 -145.89522148 335.31113946 -137.39453125 344.15234375 C-135.3125 346.375 -135.3125 346.375 -134.3125 348.375 C-133.6525 348.375 -132.9925 348.375 -132.3125 348.375 C-132.3125 349.035 -132.3125 349.695 -132.3125 350.375 C-130.969946 351.81200222 -130.969946 351.81200222 -129.125 353.3125 C-128.38765625 353.93511719 -127.6503125 354.55773437 -126.890625 355.19921875 C-125.61445313 356.27623047 -125.61445313 356.27623047 -124.3125 357.375 C-123.37921875 358.20644531 -122.4459375 359.03789063 -121.484375 359.89453125 C-82.45630221 394.42587767 -33.3107311 406.47187182 17.6875 404.375 C57.44024063 401.93666895 97.67122724 383.82510153 126.44140625 356.5 C128.33987572 354.7038828 130.27246654 353.06582603 132.3125 351.4375 C137.10985266 347.3729172 140.80296603 342.28461932 144.6875 337.375 C145.3475 336.5809375 146.0075 335.786875 146.6875 334.96875 C167.34261514 309.98272363 179.37234559 281.03665356 185.6875 249.375 C185.83300293 248.66956055 185.97850586 247.96412109 186.12841797 247.23730469 C190.28052248 226.11836674 189.00037568 201.34100719 184.6875 180.375 C184.54296387 179.67068848 184.39842773 178.96637695 184.24951172 178.24072266 C183.25025577 173.56092929 182.03436981 168.96583444 180.6875 164.375 C180.48817871 163.6840625 180.28885742 162.993125 180.08349609 162.28125 C172.47096386 136.4021566 159.1664443 113.11411101 141.11328125 93.08984375 C138.6875 90.375 138.6875 90.375 136.98046875 88.00390625 C136.55378906 87.46636719 136.12710937 86.92882812 135.6875 86.375 C135.0275 86.375 134.3675 86.375 133.6875 86.375 C133.43242676 85.78428711 133.17735352 85.19357422 132.91455078 84.58496094 C131.56102867 82.14722076 130.17923551 80.80799784 128.0546875 79.015625 C126.98105957 78.10780273 126.98105957 78.10780273 125.88574219 77.18164062 C55.36909901 19.22704717 -43.29121404 13.31321657 -124.3125 77.375 Z " fill="#A6554B" transform="translate(539.3125,322.625)"/>
<path d="M0 0 C12.31336644 10.63636288 30.04932156 28.57649693 31.42578125 45.828125 C31.218951 49.67944683 30.26716017 51.6043198 27.8125 54.5625 C24.21608394 57.45717634 22.12506111 57.78764415 17.515625 58.05078125 C13.49611022 57.29538968 10.43684178 55.277331 8.04052734 51.94116211 C6.89440685 49.96994688 5.84239174 47.97176654 4.8125 45.9375 C1.79656898 40.25311028 -1.34411523 35.14937259 -5.53515625 30.2265625 C-6.75 28.625 -6.75 28.625 -6.75 26.625 C-7.41 26.625 -8.07 26.625 -8.75 26.625 C-11.375 24.25 -11.375 24.25 -13.75 21.625 C-13.75 20.965 -13.75 20.305 -13.75 19.625 C-14.31976562 19.36074219 -14.88953125 19.09648438 -15.4765625 18.82421875 C-17.88982131 17.55124546 -19.93846237 16.06807499 -22.125 14.4375 C-46.50349825 -2.70585915 -77.13460263 -7.36752719 -106.21728516 -2.83642578 C-120.34325335 -0.26286882 -133.31864865 4.49295614 -145.75 11.625 C-146.76578125 12.2025 -147.7815625 12.78 -148.828125 13.375 C-155.51070099 17.40694529 -161.12515937 22.24122397 -166.75 27.625 C-167.56210937 28.35074219 -168.37421875 29.07648437 -169.2109375 29.82421875 C-175.31249486 35.49270027 -179.64608448 41.67278789 -183.82006836 48.82421875 C-186.52761563 53.31953678 -188.56997247 55.86835515 -193.75 57.625 C-197.91178117 58.03892037 -201.08292974 57.03104277 -204.625 54.875 C-206.98238591 52.37894434 -207.98921822 50.97243984 -208.75 47.625 C-208.41541739 41.68306071 -207.16243595 37.74181142 -203.75 32.8125 C-203.34700684 32.21139404 -202.94401367 31.61028809 -202.52880859 30.9909668 C-180.90410015 -0.74798198 -148.20099126 -20.69533527 -110.74853516 -27.85571289 C-71.91664151 -34.48084581 -30.42160774 -25.37447806 0 0 Z " fill="#A6554B" transform="translate(634.75,589.375)"/>
<path d="M0 0 C3.10352458 1.60923497 5.21701424 3.00347267 7.375 5.75 C8.73494938 10.64581777 8.72981298 14.47691204 6.5625 19 C-3.52777627 30.81300636 -17.01947998 38.39208921 -32.62890625 39.83984375 C-50.3172209 41.03460635 -67.0948123 37.46995342 -81 26 C-88.71777266 19.01590957 -88.71777266 19.01590957 -89.2734375 15.046875 C-89.46329043 10.75327801 -89.4342668 7.90417036 -86.625 4.5 C-82.5752299 0.6430761 -79.91212519 0.66778491 -74.48828125 0.70703125 C-71.0266052 1.11460692 -69.2786248 2.41755856 -67 5 C-67 5.66 -67 6.32 -67 7 C-64.03814367 8.53246859 -61.03682861 9.8330529 -57.9375 11.0625 C-57.08027344 11.40410156 -56.22304688 11.74570312 -55.33984375 12.09765625 C-50.28918571 14.04540585 -46.16542969 14.21733529 -40.8125 14.25 C-39.5740332 14.2809375 -39.5740332 14.2809375 -38.31054688 14.3125 C-29.84668792 14.36585766 -23.89887557 11.76350932 -17 7 C-16.34 7 -15.68 7 -15 7 C-14.773125 6.401875 -14.54625 5.80375 -14.3125 5.1875 C-11.11710645 -0.13815592 -5.83192015 -1.03856112 0 0 Z " fill="#A6564C" transform="translate(505,466)"/>
<path d="M0 0 C3.07469523 1.70251719 5.40613254 3.81226508 7 7 C7.41713556 11.08311537 7.48772061 14.7950432 5.9375 18.625 C-4.59368464 31.53419407 -18.5221044 38.24469821 -35 40 C-51.39532543 41.21634563 -69.66474928 36.71931575 -82.3984375 25.9765625 C-86.65542918 21.84251643 -89.70229712 18.6793259 -90.375 12.625 C-89.93060645 8.32919568 -88.70408706 6.32216411 -86 3 C-82.33430703 0.55620468 -80.13970505 0.29111254 -75.8046875 0.34765625 C-71.15189243 1.42985232 -68.33027375 4.62538517 -64.82421875 7.73046875 C-55.5948124 15.14718395 -43.30333817 15.18174933 -32 14 C-23.89195122 12.52669631 -18.81796212 8.61723977 -12.99609375 2.92578125 C-9.17763605 -0.75817109 -5.09624843 -0.78666922 0 0 Z " fill="#A6564D" transform="translate(657,466)"/>
<path d="M0 0 C0 1.65 0 3.3 0 5 C0.763125 5.144375 1.52625 5.28875 2.3125 5.4375 C5 6 5 6 8 7 C8 8.32 8 9.64 8 11 C8.66 11 9.32 11 10 11 C10 11.66 10 12.32 10 13 C10.66 13 11.32 13 12 13 C12 13.66 12 14.32 12 15 C12.66 15 13.32 15 14 15 C14 15.66 14 16.32 14 17 C14.66 17 15.32 17 16 17 C16 18.65 16 20.3 16 22 C15.34 21.67 14.68 21.34 14 21 C14 20.34 14 19.68 14 19 C13.34 19 12.68 19 12 19 C9.375 16.625 9.375 16.625 7 14 C7 13.34 7 12.68 7 12 C6.44828125 11.74476563 5.8965625 11.48953125 5.328125 11.2265625 C2.63362942 9.80697926 0.23221272 8.13867746 -2.25 6.375 C-3.14203125 5.74335937 -4.0340625 5.11171875 -4.953125 4.4609375 C-5.62859375 3.97882812 -6.3040625 3.49671875 -7 3 C-4.84306077 0.84306077 -3.08852974 0 0 0 Z " fill="#A35C55" transform="translate(614,597)"/>
<path d="M0 0 C0.33 0 0.66 0 1 0 C1 2.31 1 4.62 1 7 C1.99 7.33 2.98 7.66 4 8 C4.33 8.66 4.66 9.32 5 10 C5.99 9.67 6.98 9.34 8 9 C9.46726798 12.81489674 8.43336419 15.29011622 7 19 C7.66 19 8.32 19 9 19 C8.67 19.99 8.34 20.98 8 22 C7.34 22 6.68 22 6 22 C4.43535612 19.44921084 2.8989104 16.88746037 1.375 14.3125 C0.92898438 13.59126953 0.48296875 12.87003906 0.0234375 12.12695312 C-3.15477925 6.6892229 -3.15477925 6.6892229 -2.3359375 3.04296875 C-1 1 -1 1 0 0 Z " fill="#A55E56" transform="translate(349,633)"/>
<path d="M0 0 C3.66659815 -0.05864392 7.33307364 -0.09381108 11 -0.125 C12.54494141 -0.15013672 12.54494141 -0.15013672 14.12109375 -0.17578125 C20.12455155 -0.21401983 25.2515507 0.24506476 31 2 C31 2.33 31 2.66 31 3 C19.12 3 7.24 3 -5 3 C-5 2.67 -5 2.34 -5 2 C-3.35 2 -1.7 2 0 2 C0 1.34 0 0.68 0 0 Z " fill="#A8625D" transform="translate(536,560)"/>
<path d="M0 0 C0.66 0 1.32 0 2 0 C0.66742079 3.08030494 -0.61984535 4.76834649 -3.3359375 6.7265625 C-3.98820313 7.2009375 -4.64046875 7.6753125 -5.3125 8.1640625 C-5.993125 8.64617188 -6.67375 9.12828125 -7.375 9.625 C-8.04789063 10.11484375 -8.72078125 10.6046875 -9.4140625 11.109375 C-12.52710993 13.35223988 -15.52855804 15.34497691 -19 17 C-19 16.01 -19 15.02 -19 14 C-17.35 13.67 -15.7 13.34 -14 13 C-14 12.34 -14 11.68 -14 11 C-13.34 11 -12.68 11 -12 11 C-11.938125 10.23171875 -11.87625 9.4634375 -11.8125 8.671875 C-11 6 -11 6 -8.75 4.453125 C-7.8425 4.05609375 -6.935 3.6590625 -6 3.25 C-2.76765106 1.97573005 -2.76765106 1.97573005 0 0 Z " fill="#AD6B67" transform="translate(679,704)"/>
<path d="M0 0 C0.33 1.32 0.66 2.64 1 4 C1.66 4 2.32 4 3 4 C1.58192622 8.47238653 -0.11304374 12.71146306 -2 17 C-2.66 17 -3.32 17 -4 17 C-4.33 14.69 -4.66 12.38 -5 10 C-4.34 10 -3.68 10 -3 10 C-3.061875 8.72125 -3.12375 7.4425 -3.1875 6.125 C-3.29296875 3.9453125 -3.29296875 3.9453125 -3 2 C-2.01 1.34 -1.02 0.68 0 0 Z " fill="#A04F46" transform="translate(731,630)"/>
<path d="M0 0 C0.66 0.33 1.32 0.66 2 1 C2.144375 1.66 2.28875 2.32 2.4375 3 C2.623125 3.66 2.80875 4.32 3 5 C3.99 5.33 4.98 5.66 6 6 C2.73635776 9.26364224 -1.47576494 8.96756947 -5.9375 9.0625 C-6.618125 9.041875 -7.29875 9.02125 -8 9 C-7.04270084 7.87411986 -6.08412105 6.7493285 -5.125 5.625 C-4.59132813 4.99851562 -4.05765625 4.37203125 -3.5078125 3.7265625 C-2.38567993 2.44163349 -1.20628025 1.20628025 0 0 Z " fill="#AA625B" transform="translate(673,671)"/>
<path d="M0 0 C5.61 0 11.22 0 17 0 C17 0.66 17 1.32 17 2 C19.31 2 21.62 2 24 2 C23.67 2.66 23.34 3.32 23 4 C15.14453364 4.31918373 7.73059495 3.35709504 0 2 C0 1.34 0 0.68 0 0 Z " fill="#B3726B" transform="translate(447,502)"/>
<path d="M0 0 C-3.34789704 2.23193136 -6.7096309 3.34597201 -10.5 4.5625 C-11.17675781 4.78357422 -11.85351562 5.00464844 -12.55078125 5.23242188 C-14.36608831 5.82499252 -16.1829684 6.41273866 -18 7 C-18.99 7.33 -19.98 7.66 -21 8 C-21.66 7.34 -22.32 6.68 -23 6 C-22.13375 5.87625 -22.13375 5.87625 -21.25 5.75 C-18.84858172 5.14194986 -18.84858172 5.14194986 -17.125 3.0625 C-12.01271629 -1.89942242 -6.5052472 -1.06975176 0 0 Z " fill="#AA635D" transform="translate(490,359)"/>
<path d="M0 0 C0.33 0 0.66 0 1 0 C1.33 11.88 1.66 23.76 2 36 C1.34 36 0.68 36 0 36 C-0.04898438 36.92683594 -0.09796875 37.85367188 -0.1484375 38.80859375 C-0.22320313 40.00613281 -0.29796875 41.20367188 -0.375 42.4375 C-0.47941406 44.22994141 -0.47941406 44.22994141 -0.5859375 46.05859375 C-0.79089844 47.51458984 -0.79089844 47.51458984 -1 49 C-1.99 49.495 -1.99 49.495 -3 50 C-2.86722656 49.071875 -2.73445312 48.14375 -2.59765625 47.1875 C-0.53974946 31.52951355 -0.35711803 15.7683579 0 0 Z " fill="#AC635A" transform="translate(727,524)"/>
<path d="M0 0 C-0.8125 3.4375 -0.8125 3.4375 -2 7 C-2.99 7.33 -3.98 7.66 -5 8 C-5.33 7.01 -5.66 6.02 -6 5 C-6 7.97 -6 10.94 -6 14 C-6.99 13.67 -7.98 13.34 -9 13 C-9.45892351 5.04532578 -9.45892351 5.04532578 -7.875 1.4375 C-5.23378281 -0.58743318 -3.23421217 -0.28748553 0 0 Z " fill="#A15048" transform="translate(425,470)"/>
<path d="M0 0 C0.33 0 0.66 0 1 0 C1.4375 2.125 1.4375 2.125 1 5 C-0.6726711 6.75416021 -2.44763882 8.19526285 -4.37109375 9.66796875 C-6.13166095 10.92224334 -6.13166095 10.92224334 -7 13 C-8.32 12.34 -9.64 11.68 -11 11 C-8.69 8.03 -6.38 5.06 -4 2 C-3.34 2.33 -2.68 2.66 -2 3 C-1.34 2.01 -0.68 1.02 0 0 Z " fill="#A45C55" transform="translate(375,401)"/>
<path d="M0 0 C0.66 0 1.32 0 2 0 C2 1.98 2 3.96 2 6 C2.66 6 3.32 6 4 6 C4 4.68 4 3.36 4 2 C4.66 2 5.32 2 6 2 C6 4.64 6 7.28 6 10 C5.34 10 4.68 10 4 10 C4 10.66 4 11.32 4 12 C3.34 12 2.68 12 2 12 C2 11.34 2 10.68 2 10 C1.34 10 0.68 10 0 10 C0 6.7 0 3.4 0 0 Z " fill="#9E4D43" transform="translate(658,472)"/>
<path d="M0 0 C1.12894876 0.93274109 2.25300876 1.87140122 3.375 2.8125 C4.00148438 3.33457031 4.62796875 3.85664062 5.2734375 4.39453125 C7 6 7 6 9 9 C8.34 9 7.68 9 7 9 C7.33 10.32 7.66 11.64 8 13 C7.01 13.495 7.01 13.495 6 14 C6 12.35 6 10.7 6 9 C5.38125 9.20625 4.7625 9.4125 4.125 9.625 C3.42375 9.74875 2.7225 9.8725 2 10 C1.34 9.34 0.68 8.68 0 8 C0.99 7.67 1.98 7.34 3 7 C3 6.34 3 5.68 3 5 C1.68 4.67 0.36 4.34 -1 4 C-0.67 2.68 -0.34 1.36 0 0 Z " fill="#AF6B63" transform="translate(638,593)"/>
<path d="M0 0 C0.70125 0.2475 1.4025 0.495 2.125 0.75 C1.135 2.235 1.135 2.235 0.125 3.75 C0.455 4.74 0.785 5.73 1.125 6.75 C-0.195 6.75 -1.515 6.75 -2.875 6.75 C-2.875 7.41 -2.875 8.07 -2.875 8.75 C-4.525 8.42 -6.175 8.09 -7.875 7.75 C-6.885 7.42 -5.895 7.09 -4.875 6.75 C-5.205 6.09 -5.535 5.43 -5.875 4.75 C-6.865 4.42 -7.855 4.09 -8.875 3.75 C-3.58269231 -0.31153846 -3.58269231 -0.31153846 0 0 Z " fill="#AD5C56" transform="translate(424.875,357.25)"/>
<path d="M0 0 C5.06998019 0.65419099 9.41990777 2.8546409 14 5 C13.67 6.65 13.34 8.3 13 10 C11.68 10 10.36 10 9 10 C9 8.68 9 7.36 9 6 C7.824375 5.5359375 7.824375 5.5359375 6.625 5.0625 C4 4 4 4 2 3 C2 2.34 2 1.68 2 1 C1.34 0.67 0.68 0.34 0 0 Z " fill="#A95F57" transform="translate(623,340)"/>
<path d="M0 0 C5.43614072 2.7832093 9.93265026 5.40783094 14 10 C11.525 9.505 11.525 9.505 9 9 C8.67 8.01 8.34 7.02 8 6 C7.236875 5.855625 6.47375 5.71125 5.6875 5.5625 C3 5 3 5 0 4 C0 4.66 0 5.32 0 6 C-1.32 6 -2.64 6 -4 6 C-4 4 -4 4 -2 1.875 C-1.34 1.25625 -0.68 0.6375 0 0 Z " fill="#A75A50" transform="translate(618,578)"/>
<path d="M0 0 C-3.6731212 2.44874747 -7.51515877 4.24234546 -11.5 6.125 C-12.27214844 6.49753906 -13.04429687 6.87007812 -13.83984375 7.25390625 C-14.58363281 7.60582031 -15.32742188 7.95773437 -16.09375 8.3203125 C-16.77115234 8.64273926 -17.44855469 8.96516602 -18.14648438 9.29736328 C-20 10 -20 10 -23 10 C-20.24096746 6.62900159 -16.48859211 5.09885195 -12.625 3.3125 C-11.965 2.99216797 -11.305 2.67183594 -10.625 2.34179688 C-6.95011528 0.62514256 -4.07112463 -0.41654364 0 0 Z " fill="#99453F" transform="translate(500,570)"/>
<path d="M0 0 C0.66 0.33 1.32 0.66 2 1 C-2.06734974 5.59216906 -6.56385928 8.2167907 -12 11 C-12 10.01 -12 9.02 -12 8 C-10.68 7.34 -9.36 6.68 -8 6 C-8.33 5.34 -8.66 4.68 -9 4 C-5.5647952 1.70986347 -4.014669 1.82157027 0 2 C0 1.34 0 0.68 0 0 Z " fill="#AA635F" transform="translate(656,720)"/>
<path d="M0 0 C1.88864723 2.83297085 3.04128677 5.33351181 4.25 8.5 C4.81460937 9.93859375 4.81460937 9.93859375 5.390625 11.40625 C5.59171875 12.2621875 5.7928125 13.118125 6 14 C5.01 15.485 5.01 15.485 4 17 C4 15.68 4 14.36 4 13 C2.68 13.33 1.36 13.66 0 14 C0 9.38 0 4.76 0 0 Z " fill="#A15751" transform="translate(364,605)"/>
<path d="M0 0 C-0.66 1.32 -1.32 2.64 -2 4 C-2.99 4 -3.98 4 -5 4 C-5 4.66 -5 5.32 -5 6 C-6.65 6 -8.3 6 -10 6 C-10.33 4.68 -10.66 3.36 -11 2 C-3.57142857 -1.57142857 -3.57142857 -1.57142857 0 0 Z " fill="#9E5246" transform="translate(620,712)"/>
<path d="M0 0 C1.54928135 2.32392203 2.63607817 4.26869948 3.7265625 6.79296875 C4.0359375 7.50517578 4.3453125 8.21738281 4.6640625 8.95117188 C5.13972656 10.0581543 5.13972656 10.0581543 5.625 11.1875 C5.94984375 11.93708984 6.2746875 12.68667969 6.609375 13.45898438 C7.40886262 15.3048602 8.20477953 17.15228184 9 19 C8.01 19 7.02 19 6 19 C-0.60080568 5.85785536 -0.60080568 5.85785536 0 0 Z " fill="#AA655E" transform="translate(735,445)"/>
<path d="M0 0 C0.99 0 1.98 0 3 0 C3 0.99 3 1.98 3 3 C1.06643218 3.69848264 -0.87202298 4.38344814 -2.8125 5.0625 C-3.89144531 5.44535156 -4.97039062 5.82820313 -6.08203125 6.22265625 C-9 7 -9 7 -12 6 C-12 5.34 -12 4.68 -12 4 C-10.02 4 -8.04 4 -6 4 C-6 3.34 -6 2.68 -6 2 C-4.02 2 -2.04 2 0 2 C0 1.34 0 0.68 0 0 Z " fill="#A86D64" transform="translate(488,498)"/>
<path d="M0 0 C0.33 0.66 0.66 1.32 1 2 C-1.45592158 2.55571948 -3.91352746 3.09497489 -6.375 3.625 C-7.42300781 3.86476563 -7.42300781 3.86476563 -8.4921875 4.109375 C-10.31170787 4.49427354 -12.15634853 4.75556082 -14 5 C-14.66 4.34 -15.32 3.68 -16 3 C-10.62669111 -0.39366878 -6.13053511 -0.32712342 0 0 Z " fill="#A76863" transform="translate(507,354)"/>
<path d="M0 0 C6.37173005 0.34134268 11.06713249 1.78869556 16 6 C16 6.66 16 7.32 16 8 C11.85701333 7.40165275 8.81805623 5.99335715 5.1875 3.9375 C4.21167969 3.38964844 3.23585938 2.84179688 2.23046875 2.27734375 C1.49441406 1.85582031 0.75835937 1.43429687 0 1 C0 0.67 0 0.34 0 0 Z " fill="#AD6C69" transform="translate(434,729)"/>
<path d="M0 0 C3.875 0.875 3.875 0.875 5 2 C7.01594582 2.23427778 9.038474 2.41336124 11.0625 2.5625 C12.16722656 2.64628906 13.27195312 2.73007812 14.41015625 2.81640625 C15.26480469 2.87699219 16.11945313 2.93757812 17 3 C16.67 3.66 16.34 4.32 16 5 C11.42464426 6.00812923 9.044999 6.38703667 4.625 4.75 C2 3 2 3 0 0 Z " fill="#AC6C6B" transform="translate(428,641)"/>
<path d="M0 0 C0.77734375 1.640625 0.77734375 1.640625 1 4 C-0.87109375 6.796875 -0.87109375 6.796875 -3.4375 9.75 C-4.28183594 10.73484375 -5.12617187 11.7196875 -5.99609375 12.734375 C-6.65738281 13.48203125 -7.31867187 14.2296875 -8 15 C-8.99 14.67 -9.98 14.34 -11 14 C-10.37351562 13.24074219 -9.74703125 12.48148438 -9.1015625 11.69921875 C-8.28429687 10.70535156 -7.46703125 9.71148438 -6.625 8.6875 C-5.81289063 7.70136719 -5.00078125 6.71523438 -4.1640625 5.69921875 C-1.94395043 3.01091621 -1.94395043 3.01091621 0 0 Z " fill="#A8625D" transform="translate(693,647)"/>
<path d="M0 0 C0.99 0 1.98 0 3 0 C3.10808032 7.09727428 2.93854006 13.96094956 2 21 C1.67 21 1.34 21 1 21 C-0.10087193 13.98194143 -0.09733092 7.09434233 0 0 Z " fill="#AA665D" transform="translate(323,544)"/>
<path d="M0 0 C2.93230193 1.32120828 4.98664899 2.74638197 7.234375 5.0390625 C8.09482422 5.90917969 8.09482422 5.90917969 8.97265625 6.796875 C9.55917969 7.40015625 10.14570312 8.0034375 10.75 8.625 C11.35199219 9.23601562 11.95398438 9.84703125 12.57421875 10.4765625 C14.05405305 11.97988624 15.52764676 13.48934856 17 15 C16.67 15.99 16.34 16.98 16 18 C13.70482087 15.56578684 11.41448005 13.12707316 9.125 10.6875 C8.14853516 9.65206055 8.14853516 9.65206055 7.15234375 8.59570312 C6.52714844 7.92861328 5.90195312 7.26152344 5.2578125 6.57421875 C4.39373779 5.65515747 4.39373779 5.65515747 3.51220703 4.7175293 C2 3 2 3 0 0 Z " fill="#9D4C43" transform="translate(687,382)"/>
<path d="M0 0 C0.99 0 1.98 0 3 0 C2.43040847 3.62613199 1.07625466 5.25517741 -1.5625 7.75 C-2.52349609 8.67039062 -2.52349609 8.67039062 -3.50390625 9.609375 C-3.99761719 10.06828125 -4.49132812 10.5271875 -5 11 C-5.66 10.34 -6.32 9.68 -7 9 C-6.67 8.01 -6.34 7.02 -6 6 C-5.34 6 -4.68 6 -4 6 C-4 5.34 -4 4.68 -4 4 C-3.01 3.67 -2.02 3.34 -1 3 C-0.67 2.01 -0.34 1.02 0 0 Z " fill="#B47872" transform="translate(694,688)"/>
<path d="M0 0 C2.76314015 3.22366351 4.53665142 6.02805385 6 10 C6.99 11.485 6.99 11.485 8 13 C4.9516752 12.67339377 3.99492311 11.99477806 1.8125 9.75 C0.00042462 7.00064426 -0.73604759 5.25541303 -1 2 C-0.67 1.34 -0.34 0.68 0 0 Z " fill="#9D514A" transform="translate(568,477)"/>
<path d="M0 0 C6.18160604 0.53753096 11.326858 2.54582388 17 5 C15.63671875 6.51953125 15.63671875 6.51953125 14 8 C11.8125 7.6875 11.8125 7.6875 10 7 C9.67 5.68 9.34 4.36 9 3 C4.545 2.01 4.545 2.01 0 1 C0 0.67 0 0.34 0 0 Z " fill="#AC6660" transform="translate(606,334)"/>
<path d="M0 0 C2.64752004 2.57784846 4.94432065 4.91648098 7 8 C5.625 9.5 5.625 9.5 4 11 C3.34 11 2.68 11 2 11 C2 10.34 2 9.68 2 9 C1.34 9 0.68 9 0 9 C0.185625 8.443125 0.37125 7.88625 0.5625 7.3125 C1.07551165 4.600867 0.6640724 2.65628961 0 0 Z " fill="#A9615A" transform="translate(396,660)"/>
<path d="M0 0 C2.16874252 0.50603992 3.99967627 0.99983813 6 2 C6 2.66 6 3.32 6 4 C6.66 4 7.32 4 8 4 C8 4.66 8 5.32 8 6 C8.66 6 9.32 6 10 6 C9.67 7.32 9.34 8.64 9 10 C8.34 10 7.68 10 7 10 C5.2734375 8.06640625 5.2734375 8.06640625 3.375 5.5625 C2.74335937 4.73878906 2.11171875 3.91507812 1.4609375 3.06640625 C0 1 0 1 0 0 Z " fill="#A8615D" transform="translate(684,420)"/>
<path d="M0 0 C0.91007813 0.00902344 1.82015625 0.01804687 2.7578125 0.02734375 C3.80582031 0.04474609 3.80582031 0.04474609 4.875 0.0625 C4.235625 0.371875 3.59625 0.68125 2.9375 1 C0.93889179 1.8970163 0.93889179 1.8970163 -0.125 3.0625 C-2.98767567 3.13575168 -5.825719 3.15488205 -8.6875 3.125 C-9.49380859 3.12048828 -10.30011719 3.11597656 -11.13085938 3.11132812 C-13.12893756 3.09950518 -15.12697783 3.08156914 -17.125 3.0625 C-17.125 2.7325 -17.125 2.4025 -17.125 2.0625 C-16.07699219 1.97162109 -16.07699219 1.97162109 -15.0078125 1.87890625 C-14.09773437 1.79511719 -13.18765625 1.71132813 -12.25 1.625 C-11.34507812 1.54378906 -10.44015625 1.46257813 -9.5078125 1.37890625 C-6.05520029 0.92044463 -3.62700806 -0.0465001 0 0 Z " fill="#955146" transform="translate(573.125,751.9375)"/>
<path d="M0 0 C0.33 0.66 0.66 1.32 1 2 C1.66 2.33 2.32 2.66 3 3 C2.0409375 3.8353125 2.0409375 3.8353125 1.0625 4.6875 C-1.19680987 7.22066561 -1.63149047 8.68341424 -2 12 C-2.99 11.67 -3.98 11.34 -5 11 C-4.54663921 6.12637153 -3.2910841 3.60957611 0 0 Z " fill="#A75D57" transform="translate(572,468)"/>
<path d="M0 0 C3.71101021 4.24115452 5.83711122 9.39377956 6.1875 15 C6.125625 15.66 6.06375 16.32 6 17 C4.79371992 14.66785852 3.8345262 12.50357861 3 10 C2.01 9.67 1.02 9.34 0 9 C0 6.03 0 3.06 0 0 Z " fill="#B37D78" transform="translate(660,621)"/>
<path d="M0 0 C2.29222362 0.8109564 4.58378828 1.62369388 6.875 2.4375 C7.52597656 2.66759766 8.17695312 2.89769531 8.84765625 3.13476562 C13.7734375 4.88671875 13.7734375 4.88671875 16 6 C16 6.66 16 7.32 16 8 C14.02 8 12.04 8 10 8 C10 7.34 10 6.68 10 6 C8.68 5.67 7.36 5.34 6 5 C6 4.34 6 3.68 6 3 C3.03 2.505 3.03 2.505 0 2 C0 1.34 0 0.68 0 0 Z " fill="#AF6D69" transform="translate(594,567)"/>
<path d="M0 0 C0.33 0 0.66 0 1 0 C1 5.28 1 10.56 1 16 C0.34 16 -0.32 16 -1 16 C-1 17.65 -1 19.3 -1 21 C-1.33 21 -1.66 21 -2 21 C-2.28307925 13.75002578 -1.50974035 7.09038772 0 0 Z " fill="#944B42" transform="translate(754,557)"/>
<path d="M0 0 C0.66666667 1.33333333 1.33333333 2.66666667 2 4 C2.36867188 4.64453125 2.73734375 5.2890625 3.1171875 5.953125 C4.16049547 8.37212225 4.20210398 10.12846484 4.125 12.75 C4.10695313 13.54921875 4.08890625 14.3484375 4.0703125 15.171875 C4.03550781 16.07679688 4.03550781 16.07679688 4 17 C2 16 2 16 0.875 13 C-0.27521462 8.67770912 -0.18124209 4.44043127 0 0 Z " fill="#9D4D49" transform="translate(724,498)"/>
<path d="M0 0 C1.43114103 2.86228205 2.40726882 4.99640328 3.1875 8 C3.36667969 8.66 3.54585937 9.32 3.73046875 10 C4.03576811 12.26540976 3.68136613 13.835092 3 16 C1 13 1 13 1 9 C0.34 9 -0.32 9 -1 9 C-0.67 6.03 -0.34 3.06 0 0 Z " fill="#AC6761" transform="translate(749,483)"/>
<path d="M0 0 C6.625 0.75 6.625 0.75 10 3 C3.4 3 -3.2 3 -10 3 C-10 2.34 -10 1.68 -10 1 C-6.7 1.33 -3.4 1.66 0 2 C0 1.34 0 0.68 0 0 Z " fill="#AD6E67" transform="translate(614,481)"/>
<path d="M0 0 C3.67033927 3.27708863 5.69281189 6.71522208 8 11 C5.61435923 10.42415568 3.33317216 9.77772405 1 9 C0.67 6.03 0.34 3.06 0 0 Z " fill="#A7625D" transform="translate(379,637)"/>
<path d="M0 0 C0.33 0.66 0.66 1.32 1 2 C1.66 2 2.32 2 3 2 C3 3.65 3 5.3 3 7 C1.02 7.99 1.02 7.99 -1 9 C-1 8.01 -1 7.02 -1 6 C-1.66 6 -2.32 6 -3 6 C-3 4.68 -3 3.36 -3 2 C-2.01 1.34 -1.02 0.68 0 0 Z " fill="#9D5042" transform="translate(741,463)"/>
<path d="M0 0 C0.66 0 1.32 0 2 0 C2 0.66 2 1.32 2 2 C2.66 2 3.32 2 4 2 C4 2.66 4 3.32 4 4 C4.66 4 5.32 4 6 4 C6 4.66 6 5.32 6 6 C6.66 6 7.32 6 8 6 C8 7.65 8 9.3 8 11 C7.34 10.67 6.68 10.34 6 10 C6 9.34 6 8.68 6 8 C5.34 8 4.68 8 4 8 C2.2856382 6.04072937 0.61594832 4.04119788 -1 2 C-0.67 1.34 -0.34 0.68 0 0 Z " fill="#A86D67" transform="translate(622,608)"/>
<path d="M0 0 C0 0.66 0 1.32 0 2 C1.32 2.33 2.64 2.66 4 3 C4.33 5.31 4.66 7.62 5 10 C4.34 9.67 3.68 9.34 3 9 C3 8.34 3 7.68 3 7 C2.34 7 1.68 7 1 7 C-0.7143618 5.04072937 -2.38405168 3.04119788 -4 1 C-2 0 -2 0 0 0 Z " fill="#A96861" transform="translate(672,402)"/>
<path d="M0 0 C1.65 0 3.3 0 5 0 C5 0.66 5 1.32 5 2 C5.66 2 6.32 2 7 2 C10.24771409 4.8516514 12.19109447 6.74642936 13 11 C8.30840284 7.61227103 3.9700218 4.21814817 0 0 Z " fill="#AA6B67" transform="translate(655,392)"/>
<path d="M0 0 C3.37462715 0.54723683 5.08235 1.0549 8 3 C7.01 4.485 7.01 4.485 6 6 C2.875 6.1875 2.875 6.1875 0 6 C0 5.34 0 4.68 0 4 C-0.66 4 -1.32 4 -2 4 C-1 2 -1 2 0 1 C0 0.67 0 0.34 0 0 Z " fill="#B05A55" transform="translate(464,712)"/>
<path d="M0 0 C-1.62170379 1.00533667 -3.24747237 2.00411907 -4.875 3 C-6.23238281 3.8353125 -6.23238281 3.8353125 -7.6171875 4.6875 C-10 6 -10 6 -12 6 C-12 5.34 -12 4.68 -12 4 C-11.34 4 -10.68 4 -10 4 C-10 3.01 -10 2.02 -10 1 C-9.01 1 -8.02 1 -7 1 C-7 0.34 -7 -0.32 -7 -1 C-3.51418144 -2.2020064 -3.32007656 -2.21338437 0 0 Z " fill="#AD6B67" transform="translate(449,377)"/>
<path d="M0 0 C0 0.66 0 1.32 0 2 C-0.99 2.66 -1.98 3.32 -3 4 C-3 5.32 -3 6.64 -3 8 C-4.32 8 -5.64 8 -7 8 C-7.33 6.35 -7.66 4.7 -8 3 C-2.25 0 -2.25 0 0 0 Z " fill="#A45044" transform="translate(483,478)"/>
<path d="M0 0 C0 0.66 0 1.32 0 2 C-0.78375 2.309375 -1.5675 2.61875 -2.375 2.9375 C-4.92330128 3.92875038 -4.92330128 3.92875038 -7 5 C-9.01927511 4.39421747 -11.02253397 3.73080266 -13 3 C-4.20833333 -1.55864198 -4.20833333 -1.55864198 0 0 Z " fill="#A8605A" transform="translate(638,478)"/>
<path d="M0 0 C3.39417765 3.12621626 5.6062718 5.56541027 7 10 C5.68 10 4.36 10 3 10 C3 9.01 3 8.02 3 7 C2.34 7 1.68 7 1 7 C0.67 4.69 0.34 2.38 0 0 Z " fill="#A45D57" transform="translate(649,605)"/>
<path d="M0 0 C3.76867646 0.55151363 5.34591504 2.0397255 7.8125 4.875 C8.43769531 5.57367187 9.06289063 6.27234375 9.70703125 6.9921875 C10.13371094 7.65476562 10.56039063 8.31734375 11 9 C10.67 9.99 10.34 10.98 10 12 C6.0747975 8.29909479 3.05419844 4.45040344 0 0 Z " fill="#AC6C64" transform="translate(375,681)"/>
<path d="M0 0 C0.33 0.66 0.66 1.32 1 2 C0.09515208 3.15518918 -0.8244206 4.29885406 -1.75 5.4375 C-2.26046875 6.07558594 -2.7709375 6.71367187 -3.296875 7.37109375 C-5.19667629 9.18810554 -6.43586908 9.60423197 -9 10 C-9.33 9.34 -9.66 8.68 -10 8 C-4.25 4 -4.25 4 -2 4 C-1.34 2.68 -0.68 1.36 0 0 Z " fill="#B67C75" transform="translate(492,469)"/>
<path d="M0 0 C0.33 0 0.66 0 1 0 C1 2.97 1 5.94 1 9 C-0.65 9.66 -2.3 10.32 -4 11 C-3.52269162 9.5410574 -3.04308958 8.08286504 -2.5625 6.625 C-2.29566406 5.81289063 -2.02882813 5.00078125 -1.75390625 4.1640625 C-1 2 -1 2 0 0 Z " fill="#AB6C64" transform="translate(711,615)"/>
<path d="M0 0 C0.309375 0.639375 0.61875 1.27875 0.9375 1.9375 C1.8345163 3.93610821 1.8345163 3.93610821 3 5 C3.07226502 6.85287502 3.0838122 8.70833878 3.0625 10.5625 C3.05347656 11.57441406 3.04445313 12.58632813 3.03515625 13.62890625 C3.02355469 14.41136719 3.01195312 15.19382812 3 16 C2.67 16 2.34 16 2 16 C0.40837921 10.42932723 -0.20674944 5.78898419 0 0 Z " fill="#974C43" transform="translate(352,562)"/>
<path d="M0 0 C0.66 0.33 1.32 0.66 2 1 C-0.10148204 4.98175544 -2.36905358 7.35039045 -6 10 C-5.67 8.35 -5.34 6.7 -5 5 C-4.01 5 -3.02 5 -2 5 C-2 3.68 -2 2.36 -2 1 C-1.34 0.67 -0.68 0.34 0 0 Z " fill="#AC6A64" transform="translate(417,394)"/>
<path d="M0 0 C0.66 0 1.32 0 2 0 C0.33248852 3.94139078 -2.22710649 6.7892812 -5 10 C-5.99 9.67 -6.98 9.34 -8 9 C-6.71520959 7.49410612 -5.42195918 5.99542625 -4.125 4.5 C-3.04605469 3.24703125 -3.04605469 3.24703125 -1.9453125 1.96875 C-1.30335938 1.3190625 -0.66140625 0.669375 0 0 Z " fill="#A7635B" transform="translate(446,603)"/>
<path d="M0 0 C0.66 0 1.32 0 2 0 C1.34 3.63 0.68 7.26 0 11 C-0.99 11 -1.98 11 -3 11 C-3.3227506 6.37390802 -2.84450614 3.71973879 0 0 Z " fill="#AB6D6B" transform="translate(357,492)"/>
<path d="M0 0 C3.0916909 2.52956528 3.90931332 5.22454612 5 9 C4.34 9.66 3.68 10.32 3 11 C3 9.68 3 8.36 3 7 C1.68 6.67 0.36 6.34 -1 6 C-0.67 4.02 -0.34 2.04 0 0 Z " fill="#AB6563" transform="translate(727,431)"/>
<path d="M0 0 C0.66 0.33 1.32 0.66 2 1 C1.34 2.65 0.68 4.3 0 6 C-0.66 6 -1.32 6 -2 6 C-2 6.66 -2 7.32 -2 8 C-2.66 8 -3.32 8 -4 8 C-3.814375 7.38125 -3.62875 6.7625 -3.4375 6.125 C-2.76313824 3.95839822 -2.76313824 3.95839822 -4 2 C-2.125 0.9375 -2.125 0.9375 0 0 Z " fill="#AB655B" transform="translate(622,708)"/>
<path d="M0 0 C0.66 0.99 1.32 1.98 2 3 C-2.8333472 3.08333357 -7.23692563 2.95261487 -12 2 C-12 1.67 -12 1.34 -12 1 C-3.25413223 -0.37190083 -3.25413223 -0.37190083 0 0 Z " fill="#AF726A" transform="translate(526,323)"/>
<path d="M0 0 C0 0.66 0 1.32 0 2 C-1.98 2 -3.96 2 -6 2 C-6 1.34 -6 0.68 -6 0 C-6.99 0.495 -6.99 0.495 -8 1 C-9.99960012 1.039992 -12.00047242 1.04346799 -14 1 C-14 0.67 -14 0.34 -14 0 C-9.20699867 -1.39151652 -4.84864218 -0.68662689 0 0 Z " fill="#9C4B3B" transform="translate(582,726)"/>
<path d="M0 0 C0.33 0 0.66 0 1 0 C1.20140476 3.62528568 0.85776765 5.86501708 -1 9 C-2.32 8.67 -3.64 8.34 -5 8 C-4.19185349 6.66402348 -3.37836819 5.331275 -2.5625 4 C-2.11003906 3.2575 -1.65757812 2.515 -1.19140625 1.75 C-0.79824219 1.1725 -0.40507812 0.595 0 0 Z " fill="#A96660" transform="translate(433,619)"/>
<path d="M0 0 C0.99 0.33 1.98 0.66 3 1 C2.27683594 1.61488281 2.27683594 1.61488281 1.5390625 2.2421875 C0.90742188 2.78101563 0.27578125 3.31984375 -0.375 3.875 C-1.00148438 4.40867187 -1.62796875 4.94234375 -2.2734375 5.4921875 C-3.55836651 6.61432007 -4.79371975 7.79371975 -6 9 C-6 6 -6 6 -4.6875 4.39453125 C-4.130625 3.87246094 -3.57375 3.35039063 -3 2.8125 C-2.443125 2.28269531 -1.88625 1.75289062 -1.3125 1.20703125 C-0.6628125 0.60955078 -0.6628125 0.60955078 0 0 Z " fill="#994941" transform="translate(454,595)"/>
<path d="M0 0 C2.95929119 2.75520215 5.03681826 5.46627288 7 9 C4.69 8.67 2.38 8.34 0 8 C0 5.36 0 2.72 0 0 Z " fill="#AC6A63" transform="translate(712,408)"/>
<path d="M0 0 C0 0.66 0 1.32 0 2 C-0.66 2 -1.32 2 -2 2 C-2 2.66 -2 3.32 -2 4 C-4.64 4 -7.28 4 -10 4 C-8 1 -8 1 -5 0.3125 C-2 0 -2 0 0 0 Z " fill="#995046" transform="translate(470,336)"/>
<path d="M0 0 C2.64 0.33 5.28 0.66 8 1 C7.67 1.99 7.34 2.98 7 4 C4.69 4.33 2.38 4.66 0 5 C0 3.33333333 0 1.66666667 0 0 Z " fill="#9B5048" transform="translate(628,732)"/>
<path d="M0 0 C2.09749995 2.35968744 2.96905704 3.54616994 3.1875 6.75 C3.125625 7.4925 3.06375 8.235 3 9 C1.68 8.67 0.36 8.34 -1 8 C-0.67 5.36 -0.34 2.72 0 0 Z " fill="#B97472" transform="translate(427,629)"/>
<path d="M0 0 C0.99 0.33 1.98 0.66 3 1 C0.69 3.31 -1.62 5.62 -4 8 C-4.66 7.67 -5.32 7.34 -6 7 C-6 6.34 -6 5.68 -6 5 C-5.01 5 -4.02 5 -3 5 C-2.5359375 4.0409375 -2.5359375 4.0409375 -2.0625 3.0625 C-1 1 -1 1 0 0 Z " fill="#C28F8C" transform="translate(470,611)"/>
<path d="M0 0 C1.32 0 2.64 0 4 0 C4 0.66 4 1.32 4 2 C6.475 2.99 6.475 2.99 9 4 C9 4.66 9 5.32 9 6 C6.03 5.01 3.06 4.02 0 3 C0 2.01 0 1.02 0 0 Z " fill="#B0756E" transform="translate(434,496)"/>
<path d="M0 0 C1.33333333 2.66666667 2.66666667 5.33333333 4 8 C2.35 7.67 0.7 7.34 -1 7 C-1.625 5.1875 -1.625 5.1875 -2 3 C-1.34 2.01 -0.68 1.02 0 0 Z " fill="#AC615A" transform="translate(356,424)"/>
<path d="M0 0 C1.34345985 0.73170581 2.67460584 1.48605753 4 2.25 C4.7425 2.66765625 5.485 3.0853125 6.25 3.515625 C6.8275 4.00546875 7.405 4.4953125 8 5 C8 6.32 8 7.64 8 9 C7.34 9 6.68 9 6 9 C6 8.01 6 7.02 6 6 C5.38125 5.690625 4.7625 5.38125 4.125 5.0625 C2.75 4.375 1.375 3.6875 0 3 C0 2.01 0 1.02 0 0 Z " fill="#A7615D" transform="translate(660,359)"/>
<path d="M0 0 C4.86896303 0.59619955 9.32790951 1.56976822 14 3 C10.16455058 4.38076179 6.92847503 3.85712183 3 3 C1.0625 1.4375 1.0625 1.4375 0 0 Z " fill="#AF7068" transform="translate(483,719)"/>
<path d="M0 0 C3 1 3 1 4.75 3.3125 C6.14972335 6.32190521 5.95287489 6.98041673 5 10 C4.16121545 8.71186658 3.32913217 7.41936744 2.5 6.125 C2.0359375 5.40570312 1.571875 4.68640625 1.09375 3.9453125 C0 2 0 2 0 0 Z " fill="#9A4B44" transform="translate(654,614)"/>
<path d="M0 0 C1.32 0.33 2.64 0.66 4 1 C3.34 2.32 2.68 3.64 2 5 C1.01 5 0.02 5 -1 5 C-1.33 4.01 -1.66 3.02 -2 2 C-1.34 2 -0.68 2 0 2 C0 1.34 0 0.68 0 0 Z " fill="#AC756F" transform="translate(460,618)"/>
<path d="M0 0 C0.66 0.33 1.32 0.66 2 1 C1.67 2.32 1.34 3.64 1 5 C-1.97 4.505 -1.97 4.505 -5 4 C-3.35 2.68 -1.7 1.36 0 0 Z " fill="#AB6763" transform="translate(476,579)"/>
<path d="M0 0 C0.33 0 0.66 0 1 0 C1.66 3.63 2.32 7.26 3 11 C1.68 11.33 0.36 11.66 -1 12 C-0.67 8.04 -0.34 4.08 0 0 Z " fill="#B36F6E" transform="translate(355,572)"/>
<path d="M0 0 C4.8333472 -0.08333357 9.23692563 0.04738513 14 1 C14 1.33 14 1.66 14 2 C12.41986783 2.25028811 10.83557694 2.47440946 9.25 2.6875 C7.92742188 2.87892578 7.92742188 2.87892578 6.578125 3.07421875 C3.44323483 2.98397191 2.28176413 2.07384637 0 0 Z " fill="#A95D57" transform="translate(562,561)"/>
<path d="M0 0 C0.99 0 1.98 0 3 0 C3 0.66 3 1.32 3 2 C4.32 2 5.64 2 7 2 C7 2.99 7 3.98 7 5 C4.03 4.505 4.03 4.505 1 4 C0.67 2.68 0.34 1.36 0 0 Z " fill="#9E5F57" transform="translate(425,490)"/>
<path d="M0 0 C6.75 1.625 6.75 1.625 9 5 C7.02 5 5.04 5 3 5 C3 4.34 3 3.68 3 3 C2.01 3 1.02 3 0 3 C0 2.01 0 1.02 0 0 Z " fill="#A15C53" transform="translate(600,331)"/>
<path d="M0 0 C2.31 0.33 4.62 0.66 7 1 C5.68 2.32 4.36 3.64 3 5 C2.01 4.67 1.02 4.34 0 4 C0 2.68 0 1.36 0 0 Z " fill="#B07772" transform="translate(474,604)"/>
<path d="M0 0 C4.455 2.97 4.455 2.97 9 6 C7.68 6.33 6.36 6.66 5 7 C4.34 5.68 3.68 4.36 3 3 C2.01 3 1.02 3 0 3 C0 2.01 0 1.02 0 0 Z " fill="#B2726E" transform="translate(623,581)"/>
<path d="M0 0 C0.99 0 1.98 0 3 0 C3 1.98 3 3.96 3 6 C1.68 6 0.36 6 -1 6 C-0.67 4.02 -0.34 2.04 0 0 Z " fill="#A05A52" transform="translate(343,448)"/>
<path d="M0 0 C5.53846154 0.49230769 5.53846154 0.49230769 7.875 3.0625 C8.431875 4.0215625 8.431875 4.0215625 9 5 C3.48387097 4.38709677 3.48387097 4.38709677 1.125 2.5 C0 1 0 1 0 0 Z " fill="#994D47" transform="translate(617,367)"/>
<path d="M0 0 C1.65 0 3.3 0 5 0 C5 0.66 5 1.32 5 2 C2.36 2.99 -0.28 3.98 -3 5 C-3.66 4.34 -4.32 3.68 -5 3 C-4.360625 2.87625 -3.72125 2.7525 -3.0625 2.625 C-2.0415625 2.315625 -2.0415625 2.315625 -1 2 C-0.67 1.34 -0.34 0.68 0 0 Z " fill="#AF6E6B" transform="translate(472,362)"/>
<path d="M0 0 C0.99 0.495 0.99 0.495 2 1 C2 1.66 2 2.32 2 3 C2.66 3 3.32 3 4 3 C4 3.66 4 4.32 4 5 C4.99 5.33 5.98 5.66 7 6 C5.02 6.99 5.02 6.99 3 8 C0 3.375 0 3.375 0 0 Z " fill="#B27872" transform="translate(403,668)"/>
<path d="M0 0 C2.18975773 3.28463659 2.99806563 6.20696275 4 10 C2.68 9.67 1.36 9.34 0 9 C0 6.03 0 3.06 0 0 Z " fill="#B17573" transform="translate(364,605)"/>
<path d="M0 0 C1.39195915 4.17587745 -0.17676781 6.13474776 -2 10 C-2.33 10 -2.66 10 -3 10 C-3.36923077 4.58461538 -3.36923077 4.58461538 -1.5 1.625 C-1.005 1.08875 -0.51 0.5525 0 0 Z " fill="#9C4D45" transform="translate(718,601)"/>
<path d="M0 0 C3.0916909 2.52956528 3.90931332 5.22454612 5 9 C3.68 8.67 2.36 8.34 1 8 C0.67 5.36 0.34 2.72 0 0 Z " fill="#B06F6A" transform="translate(739,456)"/>
<path d="M0 0 C1.32 0.33 2.64 0.66 4 1 C4 1.66 4 2.32 4 3 C4.66 3.33 5.32 3.66 6 4 C3 5 3 5 0 4 C0 2.68 0 1.36 0 0 Z " fill="#9B4D47" transform="translate(460,710)"/>
<path d="M0 0 C2.125 0.9375 2.125 0.9375 4 2 C3.67 3.65 3.34 5.3 3 7 C1.68 6.01 0.36 5.02 -1 4 C-0.67 3.67 -0.34 3.34 0 3 C-0.66 2.34 -1.32 1.68 -2 1 C-1.34 0.67 -0.68 0.34 0 0 Z " fill="#AD665F" transform="translate(413,711)"/>
<path d="M0 0 C0.99 0 1.98 0 3 0 C4.0625 1.75 4.0625 1.75 5 4 C4.67 5.32 4.34 6.64 4 8 C2.68 5.36 1.36 2.72 0 0 Z " fill="#AF716B" transform="translate(640,635)"/>
<path d="M0 0 C0.33 0.66 0.66 1.32 1 2 C-0.70625501 4.78388975 -1.47626739 5.85384206 -4.6875 6.75 C-5.8321875 6.87375 -5.8321875 6.87375 -7 7 C-4.66666667 4.66666667 -2.33333333 2.33333333 0 0 Z " fill="#B3716C" transform="translate(462,588)"/>
<path d="M0 0 C1.65 0 3.3 0 5 0 C5 0.66 5 1.32 5 2 C5.99 2.33 6.98 2.66 8 3 C5.125 3.625 5.125 3.625 2 4 C1.34 3.34 0.68 2.68 0 2 C0 1.34 0 0.68 0 0 Z " fill="#9F6053" transform="translate(590,498)"/>
<path d="M0 0 C1.32 1.32 2.64 2.64 4 4 C3.34 5.32 2.68 6.64 2 8 C1.34 7.67 0.68 7.34 0 7 C0 4.69 0 2.38 0 0 Z " fill="#AB665F" transform="translate(360,473)"/>
<path d="M0 0 C0.33 0.66 0.66 1.32 1 2 C1.99 2.33 2.98 2.66 4 3 C3.67 4.65 3.34 6.3 3 8 C2.34 8 1.68 8 1 8 C-0.42944945 5.64561267 -1.08661261 4.51967567 -0.625 1.75 C-0.41875 1.1725 -0.2125 0.595 0 0 Z " fill="#AB6660" transform="translate(633,618)"/>
<path d="M0 0 C0.33 1.32 0.66 2.64 1 4 C-0.8125 4.6875 -0.8125 4.6875 -3 5 C-4.75 3.5625 -4.75 3.5625 -6 2 C-4.02 1.34 -2.04 0.68 0 0 Z " fill="#A86961" transform="translate(613,597)"/>
<path d="M0 0 C0.33 0.66 0.66 1.32 1 2 C1.66 2 2.32 2 3 2 C4.35439668 4.70879335 4.06501451 7.00933268 4 10 C0 4 0 4 0 0 Z " fill="#AC6963" transform="translate(711,462)"/>
<path d="M0 0 C1.875 0.125 1.875 0.125 4 1 C5.25 4.0625 5.25 4.0625 6 7 C5.34 7 4.68 7 4 7 C2.02 3.535 2.02 3.535 0 0 Z " fill="#AC6862" transform="translate(693,432)"/>
</svg>
